<svg width="21" height="21" viewBox="0 0 21 21" fill="none" xmlns="http://www.w3.org/2000/svg">
<path d="M10.2796 3.54488C7.83127 1.71488 4.0996 0.977875 0.279602 0.837875V18.5519C3.56044 18.6719 6.77543 19.2329 9.16877 20.5469C9.87377 20.9349 10.6829 20.9349 11.3913 20.5469C13.7846 19.2329 16.9988 18.6719 20.2796 18.5519V0.837875C16.4596 0.977875 12.7279 1.71488 10.2796 3.54488ZM1.94627 16.6489V2.94488C6.24377 3.33388 8.21877 4.40788 9.44627 5.27888V18.4469C8.17543 17.9009 5.51627 16.9419 1.94627 16.6489ZM18.6129 16.6489C15.0438 16.9419 12.3838 17.9009 11.1129 18.4479V5.27688C12.3238 4.41588 14.3046 3.33488 18.6129 2.94488V16.6489Z" fill="url(#paint0_linear)"/>
<defs>
<linearGradient id="paint0_linear" x1="20.2796" y1="0.837875" x2="-2.58349" y2="16.715" gradientUnits="userSpaceOnUse">
<stop offset="0.00652021" stop-color="#FF80AF"/>
<stop offset="1" stop-color="#FFBC80"/>
</linearGradient>
</defs>
</svg>
