<svg width="21" height="21" viewBox="0 0 21 21" fill="none" xmlns="http://www.w3.org/2000/svg">
<path d="M18.9137 2.00325V18.6699H2.24708V2.00325H18.9137ZM20.5804 0.336586H0.580414V20.3366H20.5804V0.336586ZM17.2471 6.16992H10.5804V7.00325H17.2471V6.16992ZM17.2471 10.3366H10.5804V11.1699H17.2471V10.3366ZM17.2471 14.5033H10.5804V15.3366H17.2471V14.5033ZM8.48375 5.08325L7.89208 4.50325L5.76458 6.67575L4.48208 5.46575L3.90041 6.05742L5.77541 7.83659L8.48375 5.08325V5.08325ZM8.48375 9.24992L7.89208 8.66992L5.76541 10.8424L4.48291 9.63242L3.90125 10.2233L5.77541 12.0033L8.48375 9.24992V9.24992ZM8.48375 13.4166L7.89208 12.8366L5.76541 15.0091L4.48291 13.7991L3.90125 14.3899L5.77541 16.1699L8.48375 13.4166V13.4166Z" fill="url(#paint0_linear)"/>
<defs>
<linearGradient id="paint0_linear" x1="20.5804" y1="0.336586" x2="0.580414" y2="20.3366" gradientUnits="userSpaceOnUse">
<stop stop-color="#FF80AF"/>
<stop offset="1" stop-color="#FFBC80"/>
</linearGradient>
</defs>
</svg>
