<svg width="21" height="21" viewBox="0 0 21 21" fill="none" xmlns="http://www.w3.org/2000/svg">
<path fill-rule="evenodd" clip-rule="evenodd" d="M4.90141 6.67121V0.837875H16.2058V9.17121H20.5536V20.8379H0.553589V6.67121H4.90141ZM4.90141 20.0045V16.6712H4.03185V20.0045H4.90141ZM11.8579 16.6712H9.24924V20.0045H11.8579V16.6712ZM17.0753 16.6712H16.2058V20.0045H17.0753V16.6712ZM18.8145 10.8379H16.2058V15.8379H17.9449V19.1712H18.8145V10.8379ZM14.4666 2.50454H6.64055V19.1712H7.51011V15.0045H13.5971V19.1712H14.4666V2.50454ZM3.16228 19.1712V15.8379H4.90141V8.33788H2.29272V19.1712H3.16228ZM17.9449 14.1712H17.0753V12.5045H17.9449V14.1712ZM3.16228 12.5045H4.03185V14.1712H3.16228V12.5045ZM10.1188 13.3379H8.37968V11.6712H10.1188V13.3379ZM12.7275 13.3379H10.9884V11.6712H12.7275V13.3379ZM4.03185 10.0045V11.6712H3.16228V10.0045H4.03185ZM10.1188 10.8379H8.37968V9.17121H10.1188V10.8379ZM12.7275 10.8379H10.9884V9.17121H12.7275V10.8379ZM10.1188 8.33788H8.37968V6.67121H10.1188V8.33788ZM12.7275 8.33788H10.9884V6.67121H12.7275V8.33788ZM10.1188 5.83788H8.37968V4.17121H10.1188V5.83788ZM12.7275 5.83788H10.9884V4.17121H12.7275V5.83788Z" fill="url(#paint0_linear)"/>
<defs>
<linearGradient id="paint0_linear" x1="20.5536" y1="0.837874" x2="1.43885" y2="21.6509" gradientUnits="userSpaceOnUse">
<stop stop-color="#FF80AF"/>
<stop offset="1" stop-color="#FFBC80"/>
</linearGradient>
</defs>
</svg>
