<svg width="21" height="21" viewBox="0 0 21 21" fill="none" xmlns="http://www.w3.org/2000/svg">
<path d="M10.6879 6.15744C10.6879 6.15744 12.4771 2.84994 13.5838 0.707443L20.6763 7.79994C18.5238 8.90078 15.2129 10.6824 15.2129 10.6824L10.6879 6.15744V6.15744ZM3.59044 11.5099C3.59044 11.5099 2.4746 15.8883 0.67627 18.6799L1.36544 19.3683L4.67127 16.0624C4.96127 15.7724 5.14544 15.3949 5.19544 14.9891C5.22377 14.7641 5.32294 14.5458 5.49627 14.3724C5.91127 13.9574 6.5846 13.9574 6.99877 14.3724C7.41377 14.7883 7.41377 15.4599 6.99877 15.8749C6.82544 16.0491 6.60794 16.1483 6.3821 16.1758C5.97544 16.2266 5.59877 16.4099 5.30877 16.7008L2.00294 20.0074L2.69127 20.7074C5.45294 18.9299 9.86127 17.7816 9.86127 17.7816L13.4129 11.2508L10.1204 7.95828L3.59044 11.5099V11.5099Z" fill="url(#paint0_linear)"/>
<defs>
<linearGradient id="paint0_linear" x1="20.6763" y1="0.707443" x2="0.67627" y2="20.7074" gradientUnits="userSpaceOnUse">
<stop stop-color="#FFBC80"/>
<stop offset="1" stop-color="#FF80AF"/>
</linearGradient>
</defs>
</svg>
